<svg width="500" height="500" viewBox="0 0 500 500" fill="none" xmlns="http://www.w3.org/2000/svg">
<path d="M416 0C462.392 0 500 37.6081 500 84V416C500 462.392 462.392 500 416 500H84C37.6081 500 0 462.392 0 416V84C0 37.6081 37.6081 0 84 0H416ZM205.393 304.46C205.395 304.49 205.399 304.529 205.402 304.576C205.404 304.6 205.406 304.626 205.408 304.653C205.409 304.667 205.41 304.682 205.411 304.696C205.412 304.704 205.412 304.716 205.412 304.72C205.41 304.726 205.327 304.737 202.919 304.908L168.005 307.34C165.575 307.512 165.512 307.522 165.511 307.528C165.511 307.533 165.513 307.545 165.514 307.554C165.515 307.571 165.516 307.589 165.518 307.607C165.52 307.644 165.522 307.682 165.525 307.723C165.532 307.804 165.54 307.894 165.549 307.993C165.566 308.191 165.588 308.425 165.617 308.691C165.675 309.225 165.759 309.896 165.879 310.696C166.119 312.298 166.503 314.42 167.118 317.012C168.35 322.201 170.499 329.252 174.238 337.778C181.385 354.076 194.223 375.497 217.175 399.472L195.801 399.299L195.479 439.299L325.836 440.348L326.614 400.921C326.632 400.38 326.633 400.358 326.634 400.357C326.624 400.357 326.61 400.357 326.594 400.356C326.526 400.354 326.401 400.348 326.224 400.34C325.867 400.323 325.297 400.294 324.537 400.246C323.015 400.15 320.739 399.98 317.891 399.688C312.166 399.101 304.269 398.037 295.599 396.15C277.376 392.184 259.404 385.338 249.077 374.898C227.268 352.851 216.333 334.169 210.871 321.714C208.13 315.463 206.733 310.703 206.038 307.775C205.69 306.309 205.516 305.295 205.438 304.776C205.4 304.521 205.385 304.385 205.384 304.374C205.384 304.379 205.388 304.408 205.393 304.46ZM157.744 205.012C157.73 205.021 157.715 205.032 157.7 205.042C157.67 205.063 157.638 205.084 157.604 205.107C157.537 205.154 157.464 205.207 157.383 205.265C157.221 205.38 157.031 205.517 156.815 205.677C156.384 205.997 155.848 206.408 155.218 206.916C153.957 207.932 152.321 209.337 150.396 211.178C146.541 214.864 141.544 220.283 136.078 227.82C125.63 242.226 113.639 264.132 104.558 296.056L93.9004 277.527L59.2266 297.473L124.227 410.473L158.637 391.211C159.132 390.943 159.132 390.942 159.133 390.943C159.128 390.935 159.121 390.923 159.113 390.908C159.081 390.848 159.023 390.738 158.94 390.58C158.775 390.264 158.512 389.758 158.169 389.078C157.482 387.716 156.479 385.666 155.291 383.061C152.903 377.825 149.828 370.473 147.072 362.039C141.281 344.312 138.102 325.345 141.888 311.157C149.884 281.193 160.474 262.315 168.459 251.305C172.466 245.78 175.866 242.168 178.041 240.088C179.13 239.047 179.917 238.384 180.325 238.055C180.529 237.89 180.639 237.808 180.646 237.804C180.643 237.806 180.619 237.823 180.575 237.854C180.55 237.872 180.518 237.895 180.479 237.922C180.46 237.935 180.439 237.95 180.416 237.966C180.405 237.974 180.393 237.982 180.381 237.99C180.375 237.994 180.364 238.001 180.361 238.003C180.356 238.006 180.328 237.974 178.938 235.947L159.188 207.053C157.795 205.021 157.77 204.994 157.765 204.997C157.761 204.999 157.751 205.007 157.744 205.012ZM417.295 258.002C417.259 258.06 417.193 258.166 417.099 258.316C416.909 258.619 416.605 259.101 416.19 259.739C415.36 261.018 414.094 262.919 412.442 265.258C409.123 269.958 404.323 276.32 398.426 282.949C386.031 296.883 371.25 309.186 357.087 313.064C327.176 321.255 305.533 321.62 291.999 320.271C285.208 319.593 280.375 318.476 277.482 317.646C276.034 317.23 275.065 316.884 274.575 316.697C274.334 316.605 274.208 316.551 274.197 316.547C274.202 316.549 274.229 316.56 274.276 316.582C274.304 316.595 274.34 316.611 274.383 316.631C274.404 316.641 274.427 316.651 274.452 316.663C274.465 316.669 274.478 316.675 274.491 316.682C274.498 316.685 274.509 316.69 274.513 316.691C274.517 316.695 274.494 316.756 273.453 318.956L258.446 350.575C257.404 352.778 257.383 352.837 257.388 352.841C257.392 352.843 257.403 352.848 257.411 352.852C257.426 352.859 257.443 352.866 257.459 352.874C257.492 352.889 257.527 352.907 257.564 352.924C257.639 352.958 257.721 352.995 257.812 353.036C257.993 353.118 258.206 353.213 258.453 353.318C258.947 353.53 259.573 353.786 260.329 354.074C261.842 354.651 263.879 355.356 266.439 356.092C271.565 357.564 278.765 359.149 288.029 360.073C305.737 361.839 330.701 361.16 362.852 352.919L352.218 371.46L386.917 391.361L451.772 278.278L417.797 258.261C417.316 257.968 417.315 257.968 417.315 257.967C417.31 257.975 417.304 257.988 417.295 258.002ZM342.417 108.354C341.925 108.613 341.918 108.617 341.917 108.616C341.922 108.625 341.929 108.636 341.937 108.651C341.968 108.712 342.025 108.823 342.105 108.981C342.267 109.299 342.523 109.809 342.857 110.493C343.527 111.864 344.504 113.927 345.659 116.547C347.98 121.812 350.962 129.202 353.61 137.671C359.176 155.47 362.115 174.475 358.149 188.614C349.774 218.474 338.944 237.217 330.82 248.125C326.744 253.599 323.299 257.168 321.098 259.22C319.996 260.247 319.2 260.9 318.787 261.224C318.581 261.385 318.47 261.466 318.464 261.471C318.467 261.469 318.491 261.452 318.535 261.421C318.56 261.403 318.593 261.381 318.632 261.354C318.651 261.341 318.672 261.327 318.695 261.312C318.707 261.304 318.719 261.295 318.731 261.287C318.738 261.283 318.748 261.276 318.751 261.274C318.757 261.274 318.81 261.343 320.147 263.349L339.529 292.491C340.893 294.536 340.921 294.567 340.927 294.564C340.93 294.562 340.94 294.555 340.947 294.55C340.961 294.54 340.977 294.531 340.992 294.521C341.022 294.5 341.055 294.479 341.089 294.456C341.156 294.41 341.231 294.358 341.312 294.302C341.476 294.189 341.667 294.054 341.885 293.897C342.32 293.583 342.862 293.178 343.498 292.678C344.771 291.677 346.426 290.294 348.374 288.478C352.275 284.841 357.34 279.486 362.901 272.019C373.531 257.746 385.799 235.994 395.284 204.188L405.706 222.851L440.63 203.347L377.068 89.5312L342.417 108.354ZM47.6895 220.029L81.3535 240.567C81.805 240.851 81.8293 240.866 81.8301 240.868C81.8353 240.86 81.8417 240.848 81.8506 240.834C81.8872 240.776 81.9551 240.672 82.0518 240.522C82.2456 240.223 82.5581 239.745 82.9824 239.113C83.8325 237.847 85.1271 235.967 86.8145 233.654C90.2058 229.005 95.1032 222.719 101.102 216.181C113.709 202.439 128.678 190.364 142.898 186.704C172.932 178.974 194.579 178.943 208.09 180.501C214.87 181.283 219.685 182.474 222.564 183.349C224.006 183.787 224.97 184.147 225.457 184.342C225.7 184.439 225.826 184.495 225.833 184.498C225.83 184.497 225.803 184.485 225.754 184.462C225.726 184.449 225.691 184.432 225.648 184.411C225.627 184.401 225.604 184.389 225.579 184.377C225.567 184.371 225.553 184.365 225.54 184.358C225.533 184.355 225.523 184.349 225.52 184.348C225.516 184.342 225.55 184.262 226.613 182.1L242.105 150.716C243.174 148.543 243.203 148.472 243.198 148.467C243.194 148.465 243.182 148.46 243.175 148.456C243.16 148.449 243.143 148.441 243.127 148.433C243.094 148.417 243.06 148.399 243.023 148.381C242.95 148.345 242.867 148.307 242.777 148.265C242.598 148.18 242.385 148.082 242.14 147.973C241.649 147.754 241.028 147.488 240.276 147.188C238.772 146.589 236.746 145.851 234.197 145.076C229.095 143.525 221.921 141.83 212.672 140.764C194.993 138.726 170.021 139.02 137.748 146.766L148.666 128.391L114.277 107.958L47.6895 220.029ZM173.329 99.6641C173.313 100.227 173.313 100.227 173.312 100.227C173.321 100.227 173.335 100.227 173.352 100.228C173.42 100.23 173.545 100.236 173.723 100.243C174.079 100.258 174.649 100.284 175.409 100.328C176.932 100.417 179.209 100.578 182.059 100.856C187.786 101.417 195.689 102.443 204.367 104.289C222.608 108.17 240.612 114.931 250.987 125.322C272.9 147.268 283.921 165.898 289.441 178.328C292.212 184.566 293.631 189.319 294.34 192.244C294.694 193.708 294.873 194.721 294.953 195.239C294.993 195.497 295.009 195.634 295.01 195.643C295.009 195.639 295.006 195.61 295.001 195.557C294.998 195.526 294.995 195.486 294.991 195.439C294.989 195.416 294.987 195.39 294.984 195.362C294.983 195.349 294.983 195.335 294.981 195.32C294.981 195.313 294.98 195.301 294.979 195.297C294.98 195.291 295.022 195.282 297.472 195.097L332.375 192.502C334.834 192.316 334.867 192.307 334.867 192.301C334.867 192.296 334.866 192.285 334.865 192.276C334.864 192.259 334.863 192.241 334.861 192.223C334.858 192.186 334.856 192.148 334.853 192.107C334.846 192.026 334.836 191.936 334.827 191.837C334.809 191.639 334.786 191.405 334.756 191.139C334.695 190.605 334.608 189.935 334.484 189.135C334.237 187.534 333.843 185.415 333.216 182.826C331.96 177.643 329.778 170.602 325.999 162.093C318.776 145.829 305.838 124.468 282.774 100.601L304.148 100.673L304.283 60.6729L173.923 60.2334L173.329 99.6641Z" fill="#D9D9D9"/>
</svg>
