<svg width="435" height="453" viewBox="0 0 435 453" fill="none" xmlns="http://www.w3.org/2000/svg">
<path d="M43.5634 263.5L108.563 376.5C108.563 376.5 78.889 322 89.5634 282C106.776 217.5 136.063 197.5 136.063 197.5" stroke="#F6F1F1" stroke-width="40"/>
<path d="M98.4718 94.1744L31.8836 206.246C31.8836 206.246 64.8208 153.653 104.914 143.335C169.564 126.696 201.359 142.408 201.359 142.408" stroke="#F6F1F1" stroke-width="40"/>
<path d="M336.567 357.411L401.423 244.328C401.423 244.328 369.299 297.421 329.369 308.355C264.982 325.987 232.95 310.766 232.95 310.766" stroke="#F6F1F1" stroke-width="40"/>
<path d="M162.64 395.299L292.997 396.348C292.997 396.348 230.973 394.397 201.858 364.964C154.911 317.504 152.462 282.124 152.462 282.124" stroke="#F6F1F1" stroke-width="40"/>
<path d="M271.216 56.6729L140.856 56.2342C140.856 56.2342 202.888 57.895 232.14 87.1911C279.309 134.431 281.924 169.799 281.924 169.799" stroke="#F6F1F1" stroke-width="40"/>
<path d="M390.168 189.098L326.606 75.283C326.606 75.283 355.587 130.155 344.406 170.016C326.377 234.293 296.838 253.92 296.838 253.92" stroke="#F6F1F1" stroke-width="40"/>
</svg>
