<svg width="900" height="620" viewBox="0 0 900 620" fill="none" xmlns="http://www.w3.org/2000/svg" role="img" aria-labelledby="title desc">
  <title id="title">Static Labs signal map</title>
  <desc id="desc">Abstract neural signal map with nodes, lines, and scanning fields.</desc>
  <rect width="900" height="620" fill="#071112"/>
  <g opacity=".38" stroke="#3aa7ff" stroke-width="2">
    <path d="M90 152H238V292H90z"/>
    <path d="M306 92H458V244H306z"/>
    <path d="M528 164H730V344H528z"/>
    <path d="M186 402H380V528H186z"/>
    <path d="M602 420H810V540H602z"/>
  </g>
  <g opacity=".68" stroke="#86d7ff" stroke-width="3">
    <path d="M164 222C254 106 386 160 458 238S646 322 750 232"/>
    <path d="M228 466C336 364 492 386 602 476"/>
  </g>
  <g fill="#f4f8ff">
    <circle cx="164" cy="222" r="13"/>
    <circle cx="304" cy="134" r="9"/>
    <circle cx="458" cy="238" r="12"/>
    <circle cx="598" cy="312" r="8"/>
    <circle cx="750" cy="232" r="14"/>
    <circle cx="228" cy="466" r="10"/>
    <circle cx="386" cy="402" r="8"/>
    <circle cx="602" cy="476" r="12"/>
  </g>
  <g fill="#ff5b58">
    <circle cx="702" cy="430" r="28" opacity=".72"/>
    <circle cx="704" cy="430" r="6"/>
  </g>
  <g fill="#ffcf5a">
    <circle cx="270" cy="348" r="24" opacity=".66"/>
    <circle cx="270" cy="348" r="5"/>
  </g>
  <g opacity=".5" stroke="#f4f8ff" stroke-dasharray="12 12" stroke-width="3">
    <path d="M270 348H704V430"/>
    <path d="M458 238V402H386"/>
  </g>
  <rect x="40" y="40" width="820" height="540" stroke="#2bc4ff" stroke-width="2" opacity=".45"/>
  <path d="M40 108H220L254 142H860" stroke="#2bc4ff" stroke-width="5" opacity=".7"/>
  <path d="M40 568H360L394 534H860" stroke="#ff5b58" stroke-width="5" opacity=".72"/>
</svg>
